<mxfile host="app.diagrams.net" modified="2023-05-25T03:17:11.411Z" agent="Mozilla/5.0 (Windows NT 10.0; Win64; x64) AppleWebKit/537.36 (KHTML, like Gecko) Chrome/113.0.0.0 Safari/537.36" etag="hQFS7AmYXXMXBEYa6tc9" version="21.3.3" type="device">
  <diagram id="DGfnzg1wnWB0EtSWzzrt" name="Page-1">
    <mxGraphModel dx="880" dy="452" grid="1" gridSize="10" guides="1" tooltips="1" connect="1" arrows="1" fold="1" page="1" pageScale="1" pageWidth="850" pageHeight="1100" math="0" shadow="0">
      <root>
        <mxCell id="0" />
        <mxCell id="1" parent="0" />
        <mxCell id="U4Y1twGSvuks3hTIH1sI-26" value="Project Zone / Cloud Service Provider" style="sketch=0;points=[[0,0,0],[0.25,0,0],[0.5,0,0],[0.75,0,0],[1,0,0],[1,0.25,0],[1,0.5,0],[1,0.75,0],[1,1,0],[0.75,1,0],[0.5,1,0],[0.25,1,0],[0,1,0],[0,0.75,0],[0,0.5,0],[0,0.25,0]];rounded=1;absoluteArcSize=1;arcSize=2;html=1;strokeColor=none;gradientColor=none;shadow=0;dashed=0;fontSize=12;fontColor=#9E9E9E;align=left;verticalAlign=top;spacing=10;spacingTop=-4;whiteSpace=wrap;fillColor=#F6F6F6;" vertex="1" parent="1">
          <mxGeometry x="265" y="450" width="320" height="442.5" as="geometry" />
        </mxCell>
        <mxCell id="U4Y1twGSvuks3hTIH1sI-32" value="Terraform SA account" style="sketch=0;points=[[0,0,0],[0.25,0,0],[0.5,0,0],[0.75,0,0],[1,0,0],[1,0.25,0],[1,0.5,0],[1,0.75,0],[1,1,0],[0.75,1,0],[0.5,1,0],[0.25,1,0],[0,1,0],[0,0.75,0],[0,0.5,0],[0,0.25,0]];rounded=1;absoluteArcSize=1;arcSize=2;html=1;strokeColor=none;gradientColor=none;shadow=0;dashed=0;fontSize=12;fontColor=#9E9E9E;align=left;verticalAlign=top;spacing=10;spacingTop=-4;whiteSpace=wrap;fillColor=#E8EAF6;" vertex="1" parent="U4Y1twGSvuks3hTIH1sI-26">
          <mxGeometry width="250" height="60" relative="1" as="geometry">
            <mxPoint x="10" y="368" as="offset" />
          </mxGeometry>
        </mxCell>
        <mxCell id="U4Y1twGSvuks3hTIH1sI-33" value="Region" style="sketch=0;points=[[0,0,0],[0.25,0,0],[0.5,0,0],[0.75,0,0],[1,0,0],[1,0.25,0],[1,0.5,0],[1,0.75,0],[1,1,0],[0.75,1,0],[0.5,1,0],[0.25,1,0],[0,1,0],[0,0.75,0],[0,0.5,0],[0,0.25,0]];rounded=1;absoluteArcSize=1;arcSize=2;html=1;strokeColor=none;gradientColor=none;shadow=0;dashed=0;fontSize=12;fontColor=#9E9E9E;align=left;verticalAlign=top;spacing=10;spacingTop=-4;whiteSpace=wrap;fillColor=#ECEFF1;" vertex="1" parent="U4Y1twGSvuks3hTIH1sI-26">
          <mxGeometry width="290" height="310" relative="1" as="geometry">
            <mxPoint x="30" y="50" as="offset" />
          </mxGeometry>
        </mxCell>
        <mxCell id="U4Y1twGSvuks3hTIH1sI-34" value="Zone" style="sketch=0;points=[[0,0,0],[0.25,0,0],[0.5,0,0],[0.75,0,0],[1,0,0],[1,0.25,0],[1,0.5,0],[1,0.75,0],[1,1,0],[0.75,1,0],[0.5,1,0],[0.25,1,0],[0,1,0],[0,0.75,0],[0,0.5,0],[0,0.25,0]];rounded=1;absoluteArcSize=1;arcSize=2;html=1;strokeColor=none;gradientColor=none;shadow=0;dashed=0;fontSize=12;fontColor=#9E9E9E;align=left;verticalAlign=top;spacing=10;spacingTop=-4;whiteSpace=wrap;fillColor=#FFF3E0;" vertex="1" parent="U4Y1twGSvuks3hTIH1sI-33">
          <mxGeometry width="230" height="250" relative="1" as="geometry">
            <mxPoint x="10" y="50" as="offset" />
          </mxGeometry>
        </mxCell>
        <mxCell id="U4Y1twGSvuks3hTIH1sI-35" value="Firewall" style="sketch=0;points=[[0,0,0],[0.25,0,0],[0.5,0,0],[0.75,0,0],[1,0,0],[1,0.25,0],[1,0.5,0],[1,0.75,0],[1,1,0],[0.75,1,0],[0.5,1,0],[0.25,1,0],[0,1,0],[0,0.75,0],[0,0.5,0],[0,0.25,0]];rounded=1;absoluteArcSize=1;arcSize=2;html=1;strokeColor=none;gradientColor=none;shadow=0;dashed=0;fontSize=12;fontColor=#9E9E9E;align=left;verticalAlign=top;spacing=10;spacingTop=-4;whiteSpace=wrap;fillColor=#FBE9E7;" vertex="1" parent="U4Y1twGSvuks3hTIH1sI-34">
          <mxGeometry width="210" height="190" relative="1" as="geometry">
            <mxPoint x="10" y="50" as="offset" />
          </mxGeometry>
        </mxCell>
        <mxCell id="U4Y1twGSvuks3hTIH1sI-16" value="Compute&#xa;Engine" style="sketch=0;html=1;verticalAlign=top;labelPosition=center;verticalLabelPosition=bottom;align=center;spacingTop=-6;fontSize=11;fontStyle=1;fontColor=#999999;shape=image;aspect=fixed;imageAspect=0;image=data:image/svg+xml,PHN2ZyB4bWxucz0iaHR0cDovL3d3dy53My5vcmcvMjAwMC9zdmciIHhtbG5zOnY9Imh0dHBzOi8vdmVjdGEuaW8vbmFubyIgd2lkdGg9IjIwIiBoZWlnaHQ9IjIwIiB2aWV3Qm94PSIwIDAgMjAgMjAiPiYjeGE7CTxzdHlsZSB0eXBlPSJ0ZXh0L2NzcyI+JiN4YTsJLnN0MHtmaWxsOiM0Mjg1ZjQ7fSYjeGE7CS5zdDF7ZmlsbDojNjY5ZGY2O30mI3hhOwkuc3Qye2ZpbGw6I2FlY2JmYTt9JiN4YTsJPC9zdHlsZT4mI3hhOwk8cGF0aCBjbGFzcz0ic3QyIiBkPSJNNyA3aDZ2Nkg3eiIvPiYjeGE7CTxwYXRoIGNsYXNzPSJzdDEiIGQ9Ik05IDBoMnY0SDl6TTUgMGgydjRINXptOCAwaDJ2NGgtMnoiLz4mI3hhOwk8cGF0aCBjbGFzcz0ic3QwIiBkPSJNOSAxNmgydjRIOXptLTQgMGgydjRINXptOCAwaDJ2NGgtMnptMy01VjloNHYyem0wIDR2LTJoNHYyem0wLThWNWg0djJ6Ii8+JiN4YTsJPHBhdGggY2xhc3M9InN0MSIgZD0iTTAgMTFWOWg0djJ6bTAgNHYtMmg0djJ6bTAtOFY1aDR2MnoiLz4mI3hhOwk8cGF0aCBjbGFzcz0ic3QyIiBkPSJNMyAzdjE0aDE0VjN6bTEyIDEySDVWNWgxMHoiLz4mI3hhOwk8cGF0aCBjbGFzcz0ic3QxIiBkPSJNMTAgMTBsLTMgM2g2eiIvPiYjeGE7CTxwYXRoIGNsYXNzPSJzdDAiIGQ9Ik0xMyA3bC0zIDMgMyAzeiIvPiYjeGE7PC9zdmc+;" vertex="1" parent="U4Y1twGSvuks3hTIH1sI-34">
          <mxGeometry x="65" y="110" width="70" height="70" as="geometry" />
        </mxCell>
        <mxCell id="nT3UJsEK4yt7cPGQOjUj-2" value="" style="sketch=0;aspect=fixed;html=1;points=[];align=center;image;fontSize=12;image=img/lib/mscae/Docker.svg;" parent="1" vertex="1">
          <mxGeometry x="610" y="654.5" width="98.78" height="81" as="geometry" />
        </mxCell>
        <mxCell id="nT3UJsEK4yt7cPGQOjUj-23" value="" style="edgeStyle=orthogonalEdgeStyle;rounded=0;orthogonalLoop=1;jettySize=auto;html=1;strokeColor=#0d0d0d;entryX=0.5;entryY=0;entryDx=0;entryDy=0;" parent="1" source="nT3UJsEK4yt7cPGQOjUj-16" edge="1" target="U4Y1twGSvuks3hTIH1sI-16">
          <mxGeometry relative="1" as="geometry">
            <mxPoint x="490" y="680" as="targetPoint" />
          </mxGeometry>
        </mxCell>
        <mxCell id="nT3UJsEK4yt7cPGQOjUj-16" value="" style="dashed=0;outlineConnect=0;html=1;align=center;labelPosition=center;verticalLabelPosition=bottom;verticalAlign=top;shape=mxgraph.weblogos.github" parent="1" vertex="1">
          <mxGeometry x="610" y="530" width="87.5" height="80" as="geometry" />
        </mxCell>
        <mxCell id="U4Y1twGSvuks3hTIH1sI-13" value="" style="endArrow=classic;startArrow=classic;html=1;rounded=0;strokeColor=#0a0a0a;exitX=1;exitY=0.5;exitDx=0;exitDy=0;" edge="1" parent="1" source="U4Y1twGSvuks3hTIH1sI-16" target="nT3UJsEK4yt7cPGQOjUj-2">
          <mxGeometry width="50" height="50" relative="1" as="geometry">
            <mxPoint x="525" y="714.0806628778835" as="sourcePoint" />
            <mxPoint x="450" y="610" as="targetPoint" />
          </mxGeometry>
        </mxCell>
        <mxCell id="U4Y1twGSvuks3hTIH1sI-17" value="" style="shape=image;verticalLabelPosition=bottom;labelBackgroundColor=default;verticalAlign=top;aspect=fixed;imageAspect=0;image=data:image/png,iVBORw0KGgoAAAANSUhEUgAAAqYAAAKlCAYAAAAZ7y4xAAAACXBIWXMAAC4jAAAuIwF4pT92AAAgAElEQVR42u3dQVIbV9s24Lv/eufwTZmgrMDKChALSIksgIKswGQFlldgvILgYgGBygKQVxC8gogJ0xdW0P+gj14rGGNAEt0S11VFxbFBak53S7dOP32eqq7rAABA2/6fIQAAQDAFAADBFAAAwRQAAARTAAAEUwAAEEwBABBMAQBAMAUAQDAFAADBFAAAwRQAAARTAAAEUwAAEEwBABBMAQBAMAUAQDAFAADBFAAAwRQAAARTAAAEUwAAEEwBABBMAQBAMAUAQDAFAADBFAAAwRQAAARTAAAEUwAAEEwBABBMAQBAMAUAAMEUAADBFAAABFMAAARTAAAQTAEAEEwBAEAwBQBAMAUAAMEUAADBFAAABFMAAARTAAAQTAEAEEwBAEAwBQBAMAUAAMEUAADBFAAABFMAAARTAAAQTAEAEEwBAEAwBQBAMAUAAMEUAADBFAAABFMAAARTAAAQTAEAEEwBAEAwBQBAMAUAAMEUAAAEUwAABFMAABBMAQAQTAEAQDAFAEAwBQAAwRQAAMEUAAAEUwAABFMAABBMAQAQTAEAQDAFAEAwBQAAwRQAAMEUAAAEUwAABFMAABBMAQAQTAEAQDAFAEAwBQAAwRQAAMEUAAAEUwAABFMAABBMAQAQTAEAQDAFAEAwBQAAwRQAAARTAAAEUwAAEEwBABBMAQDgrv8YAvhqf3jdT3KYZHR6vnVjRADg5ZgxhX/bTPI2yWR/eH1kOABAMIW2bST5sD+8vtwfXg8MBwAIptC2N0ku9ofXZ/vD657hAADBFNo2TPLP/vB6tD+83jQcACCYQtvepak/PTQUACCYQts2kvyxP7weqz8FAMEUumAnTf3pifpTABBMoQsOklyqPwUAwRS6YCNN/enl/vB6z3AAgGAKbdtO8mepP+0bDgAQTKFtO0n+LvWnLu8DgGAKrTtIs7zUyFAAgGAKbdtI8m5/eD2xvBQACKbQBdtplpcaW14KAART6IKdNO1Nj9WfAoBgCl3wNtqbAoBgCh0xbW96qf4UAMEU6II3aepPz9SfAiCYAl0wTFN/qr0pAIIp0AnT9qaHhgIAwRRo23aa+tOx+lMABFOgC3bS1J+eqD8FQDAFuuAgzeX9kaEAQDAF2jbb3nTPcAAgmAJt207yZ6k/7RsOAARToG07Sf7W3hQAwRToiml70yNDAYBgCrRtI8mHUn86MBwACKZA27bTLC81trwUAIIp0AU70d4UAMEU6JB3aepPDw0FAIIp0LaNNO1NL9WfAiCYAl3wJk396Zn6UwAEU6ALhintTdWfAiCYAm3bSFN/eqn+FADBFOiC7TT1p2P1pwAIpkAX7KSpPz1xeR8AwRTogoM0y0uNDAUAginQto0k70p70z3DAYBgCrRtO8mf2psCIJgCXTFtb3qs/hQAwRTogrdp6k+PDAUAginQto0kH0r96cBwACCYAm3bjvamAAimQIcM09Sfam8KgGAKdMK7NPWnh4YCAMEUaNtGmvaml+pPARBMgS54k6/tTXuGAwDBFGjbQZJL9acACKZAF2ykqT+91N4UAMEU6IJpe9OBoQBAMAUAQDAFAADBFAAAwRQAAARTAABWxn8MAdA1+8PrUZJektHp+dbEiLBudnf/Okwyurj4pWc0QDAFuu8gyd7+8Po4yfHp+daNIWENAukgySjJjtGAb7mUD3SZxflZl0C6ubv710mSC6EUBFNgtU0X5x/vD6/7hoMVC6WjJJM0VwGAB7iUD6ySnSR/7w+vPyU5cnmfjgfSvSTH5YMV8AhmTIFVdJBkUm6Sgq4F0v7u7l/jJH8KpfA0ZkyBVbWR5N3+8PowyeHp+dbYkNByIN1Mc2PTW6MBz2PGFFh120kuSv1pz3DQUig9SlNHKpTCHMyYAutiJ8k/+8Prj2nWP1V/yksE0kGSk7hkDwthxhRYN2/T1J8eGQqWGEh7pY70QiiFxTFjCqyjjSQfSv3pkfpTFhhIN5McpVlfF1gwM6bAOnuTpv70TP0pCwilh2nqSIVSWBIzpsBrMEwy3B9ev4/2pjw9kA7SrEf6xmjAcpkxBV6Td2nqTw8NBY8IpL3d3b/O0tSRCqXwAsyYAq/NRpI/SjgdqT/lnkA6rSM9KscL8ELMmAKv1U6a+tMT9afMhNLDJJdpZteFUhBMAV7UQZJL7U1ffSCdthH9I5Z/gta4lA/w7/amR6fnW2eG5NUE0s00NzYdGA1onxlTgK+2k/xZ2pv2Dcfah9JRmuWfhFLoCDOmAN/aSfL3/vD6U5oZVMtLrVcg3UszS+qSPXSMGVOA7zuI9qbrFEinbUT/FEpBMAVYRdP2ppP94fXAcKxkIN3c3f3rOMk/aWbDAcEUYKVtp1leamx5qZUKpUdp6kjfGg3oPjWmAE+zk+Sf/eH1xzQL9Ks/7WYgHSQ5iUv2sFLMmAI8z9tob9rFQDrbRlQohRVjxhTg+abtTY/S3L0/NiStBdJpG9F3RgNWlxlTgPm9SVN/eqb+tJVQepimjlQohRVnxhRgcYZJBvvD6+Mkx+pPlx5IB2nWI31jNGA9mDEFWKyNNDN3l+pPlxZIe7u7f52kqSMVSmGNmDEFWI7tNPWnh2nu3h8bkrkD6bSO9Kh8AADWjBlTgOXaSVN/erI/vN40HM8OpXtJLtPMRgulIJgCMIdpe9ORoXhSIO1rIwqvh0v5AC9nI8m7cnn/6PR868yQfDeQbqa5senAaMDrYcYU4OVtJ/mztDftG45vQukozfJPQim8MmZMAdqzk+Rv7U3/F0gH0UYUXjUzpgDtm7Y3PXqlgbRX6ki1EQXBFIAO2EjyYX94PdkfXg9eSSDd3N396zjJP2lmjwHBFIAO2U6zvNR4ndub7u7+dZSmjvStXQ5MqTEF6KadJP/sD6/fZ43am2ojCjzEjClAt71LU396uOKBtLe7+9dZtBEFHmDGFKD7NtK0Nz1Ks/7peIUC6bSN6Du7EfgRM6YAq+NNvrY37a1AKD1MU0cqlAKPYsYUYPUcJNnbH14fp4P1p6WOdBR32gNPZMYUYDVtpJmJvOxK/WmpIz1JU0cqlAKCKcArs52m/rTV9qaljehltBEF5uBSPvzbZZJP3lxZQdP2pp/S3CD1Ipf3d3f/2kuz/JOOTcDczJjCjNPzrZvT863DJLtJPhsRVtBBmuWlRksOpP3SRvRPoRQQTGG5AXV8er41SPJbkisjworZSPKutDfdW3Ag3Sx1pH9HHSkgmMKLBtSTJP0k740GK2g7yZ+Lam8600ZUqQsgmEJL4fTm9HxrlOSnJOdGhBU0bW96vD+83nxGIB3s7v41SfIhzWwsgGAKLQfUyen51l6a+tMvRoQV9DZN/enRIwNpr9SRXkQdKSCYQicD6vj0fKuf5Pckt0aEFbORZubzMQ6jjhQQTGElAupxkl6Sj0YDAARTaDuc3pyebx2lqT+1vBQACKbQekCdlOWldmN5KQAQTKEDAXV8er7VS7O8lPpTABBMofWAOkpTf/rJaACAYApth9Npe9Ofo/4UAART6EBAvSz1p79G/SkACKbQgYB6lq/tTdWfAoBgCq2G02l7037UnwKAYAodCKiTUn+qvSkACKbQiYA6bW/6W1zeB0AwBToQUE/SLC/13mgAIJgCbYfTaf3pT0nOjQgAginQdkCdnJ5v7UV7UwAEU6AjAXXa3vT3qD8FQDAFOhBQj9PUn340GgAIpkDb4fTm9HzrKE39qfamAAimQOsBdaK9KQCCKdClgHpW6k+1NwVAMAU6EVBHaepPtTcFQDAFWg+nNzPtTdWfAiCYAq0H1HGpP/0t6k8BEEyBDgTUkyT9qD8FQDAFOhBOp+1N+9HeFADBFOhAQJ1tb/rFiAAgmAJtB9Tx6flWP039qcv7AAimQOsB9STN8lLvjQYAginQdjid1p9qbwqAYAp0IqBO25vuxvJSAAimQAcC6ri0N/096k8BEEyBDgTU42hvCoBgCnQknE7bm/4c9acACKZABwLqZak//TXqTwEQTIEOBNSzUn+qvSkAginQiYA6StPeVP0pAIIp0Ho4nZT6092oPwVAMAU6EFDHpf70t6g/BUAwBToQUE/SXN7X3hQAwRRoPZzOtjc9NyIACKZA2wF1cnq+tZem/vSLEQFAMAXaDqjj0/OtfrQ3BUAwBToSUKftTT8aDQAEU6DtcHpzer51lKb+1PJSAAimQOsBdVKWl9qN5aUAeMB/DAHwQgF1nKS3P7zeNBoA3MeMKfDSAfXGKAAgmAIAIJgCAIBgCgCAYAoAAIIpsKqOY3F+1ttVmiXUgBmWiwI6p9y5f7Q/vD5OcpJkx6iwJm6TjC4ufjk2FPAtM6ZAlwPqdHH+X2NxflbfpyQ9oRS+z4wpsAoB9SzJ2f7wepTkKMmGUWGFfE5ydHHxy6WhgIeZMQVWKaCOkvTSzDxB110l+fXi4peBUAqPY8YUWLVwepPksNSfHkf9Kd1zm+T44uKXkaGApzFjCqxqQL0s9ae/Rf0p3fEpSV8oBcEUeJ0B9SRJP8n7NDNV0IbPSXYvLn45vLj4ZWI44HlcygfWIZzeJBntD69PkoySHBgVXshVmuWfTgwFzM+MKbBOAXVyer51mGbh8i9GhCV7n+ayvVAKC2LGFFjHgDpO0t8fXh+muUHK8lIs0nma5Z8mhgIWy4wp0Dn7w+vR/vD6bH943ZszoJ6kWV7qvVFlAb6kqSPdE0pBMAVel2GSyxJSN+cIpzdl/dOf0sx0wVPdJvn94uKX/sXFL2PDAYIp8DptJHlXAurhPA9U6k/30tSfWl6Kx/oYbURBMAWYsZ3kj/3h9Xh/eD2YM6COT8+3ekl+j+Wl+L7PSX66uPjl6OLilxvDAYIpwF07SS72h9cn81zeLwH1OE396UfDyoyrNHWkA3WkIJgCPMZBksn+8Ho0Zzi9OT3fOkryc5oZMl6v2yTvLy5+6akjBcEU4Kk2krzbH15P9ofXe3MG1Gl701+j/vQ1+pSmjnRkKEAwBZjHdpI/S/1pf86AelbqT7U3fR0+J/m5tBFVRwqCKcDC7CT5e394fbyA+tNRmvrTT4Z1LV0l+bXUkV4aDhBMAZblbZr606M5w+nNTHtT9afr4TZf24ieGQ4QTAFewkaSD6X+dDBnQB2X+tPfov50lX0qgXTksj0IpgBt2E6zvNSi2pv2o/501XxOs/zToeWfQDAF6IJhkn8W2N60H+1Nu+42yW+ljnRsOEAwBeiad2nqTw/neZA77U2/GNbOeZ9m+acTQwGCKUCXbaRpb3q5oPrTfpr6U5f323eepo2oOlIQTAFWypt8bW/amzOgnkR70zZ9SVNHuqeOFARTgFV2kORyQfWnR0l+iuWlXsptkt8vLn7pqyMFwRRgXWykqT+9XFD96SBN/anlpZbnY5o60mNDAYIpwDraTlN/uoj2puPS3vT3qD9dpM9p6kiP1JGCYArwGkzbm54soL3pcbQ3XYTZNqITwwGCKcBrc5BmeanRnOF02t7056g/farbJO8vLn7paSMKginAa7eR5F1pb7o3Z0C9LPWnv0b96WN8SlNHOjIUIJgC8NV2kj9L/WlvzoB6VupPtTe93+ckP5c2oupIQTAF4Dt20rQ3PV5A/ekoTXtT9aeNq3xtI3ppOEAwBeBx3qapPz2aM5xOSv3pbl5v/eltmtnjvjaiIJgC8DwbST4ssL3pIE1709dUf/qpBFJtRAHBFGABpu1NzxbU3rSfZgZxnU3biB5a/gkQTAEWb5im/nQR7U1Hadqbnq/ZGN2mqSPVRhQQTAFewLs09aeH8zxIqT/dS1N/+mUNxuV9muWfThwigGAK8HI28rW96WDOgDo+Pd/qZ3Xbm56naSOqjhQQTAFatJOm/vRkAfWn0/amH1fkd79KU0e6p44UEEwBuuMgyeWC6k+P0tSfdnV5qdskv5c2omO7HhBMAbpnI0396eUC2ptOyvJSu+nW8lIf09SRHtvdwFP9xxAAvLhpe9PPSY5Oz7ee3eXo9HxrnKS3P7weJTkq4bcNn5NY+gmYixlTgPbsJPm71J8uor1pLy/f3vQqya+ljahQCgimACvuIItpb3pT2pv+nOXXn94meV/qSM/sQkAwBVgf0/amkwUsL3VZ6k9/zXLqTz+lqSMd2W2AYAqwvrbTLC81XsDyUmf52t50Eeuffs7XNqLWIwUEU4BXYidNe9PjBbU37ef59adXadqIDiz/BAimAK/X2yyuvelhntbe9CbNbGtfG1HgJVR1XRsFoFPK0kfvjMQ3vqRZXmpsKIB1ZMYUYHW8SVN/ejZv/SmAYArAIgzT1J+O5l3/FEAwBWARpu1NDw0FIJgC0LbtJH+U5aUGhgMQTAFo206a+tMTl/cBwRSALpi2Nx0ZCkAwBaBtG0nelfame4YDEEwBaNt2kj9L/WnfcACCKQBt20ny97ztTQEEUwAWZdre9MhQAIIpAG3bSPLBMACCKQAACKYAAAimAAAgmAIAIJgCAIBgCgCAYAoAAIIpAACCKQAACKYAAAimAAAgmAIAIJgCAIBgCgCAYAoAAIIpAACCKQAACKYAAAimAAAgmAIAIJgCAIBgCgCAYAoAAIIpAACCKQAACKYAAAimAAAgmAIAgGAKAIBgCgAAgikAAIIpAAAIpgAACKYAACCYAgAgmAIAgGAKAIBgCgAAgikAAIIpAAAIpgAACKYAACCYAgAgmAIAgGAKAIBgCgAAgikAAIIpAAAIpgAACKYAACCYAq/LcZL3hgHgdanqujYKQCftD697SU6S7BiNxTo936qMAtA1ZkyBLoenyen51iDJbpIrIwIgmAK0HVDHp+dbvSS/J7k1IgCCKUDbAfU4SS/JR6MBsH7UmAIraX943U9zk5T60+eFfDWmQOeYMQVWNVhdlvrTX6P+FEAwBehAQD0r9afvo/4UQDAF6EBAHSXpJ/lkNAAEU4C2w+nk9HzrMM3yUp+NCIBgCtB2QB2X+tPfov4UQDAF6EBAPUlzeV97U4AVYLko4FUo7U2PkwyNhuWigG4yYwq8liA2OT3f2ktTf/rFiAAIpgBtB9Tx6flWP9qbAgimAB0JqNqbAnSMGlPg1Sv1pyd5Re1N1ZgCXWTGFHj1Sv3pIE39qeWlAARTgNYD6lh7UwDBFKBLAXWUpv5Ue1MAwRSg9XB6U9qb/hztTQEEU4AOBNTLUn/6a9SfAgimAB0IqGf52t5U/SnAElguCuCJyvJSoyQHKxy0LRcFCKYAaxRQB0mOk7wRTAHm51I+wPPD3bS96W9xeR9AMAXoQEA9SbO81HujAfB8LuUDLFCpPz1OMux4mHYpHxBMAV5JQB0kOUmyLZgCPI5L+QDLCX7T9qa/R/0pgGAK0IGAepym/vSj0QB4mEv5AC+k1J+eJNnpQGB2KR/oHDOmAC8XBifamwIIpgBdCqhnpf5Ue1MAwRSgEwF1lKb+9JPRABBMAdoOpzen51uHSXaTfDYigGAKQNsBdVzqT3+L+lNAMAWgAwH1JEk/6k+BV8hyUQAdtcz2ppaLArrIjClAR5XlpfbS1J9+MSKAYApA2wF1fHq+1U9Tf+ryPiCYAtB6QD1Js7zUe6MBrCM1pgAraN72pmpMgS4yYwqwgmbam+7G8lKAYApABwLquLQ3/T3qTwHBFIAOBNTjaG8KCKYAdCScTtub/hztTQHBFIAOBNTLUn/6a9SfAoIpAB0IqGel/lR7U0AwBaATAXWUpB/1p4BgCkAHwumk1J/uRv0p0FEW2AcAoBPMmAIAIJgCAIBgCgCAYAoAAIIpAACCKQAACKYAAAimAAAgmAIAIJgCAIBgCgCAYAoAAIIpAACCKQAACKYAAAimAAAgmAIAIJgCAIBgCgCAYAoAAIIpAACCKQAACKYAAAimAAAgmAIAIJgCAMBL+Y8hYF5VVfWTbCa5rOv6xogAAM9hxrT9UDeoqqq+8zX4wc886ftfwHGSiyT/rarqpqqqw2eMw6N+p6qqDquqOivPU9/zNamqalxV1XFVVT1HGACsDjOmLNpGkoUHwqqqNpOMk7z5wbdul6+duq6P7A4AWB1mTFkVjwmls24NGQCsFjOmdF4pDXjznfB5OfP/mzPfd2nkAEAwhSer67p64J8H9/zd73VdH38nyPZKSAUABFPaVOoxp3fK9+/88ziPuHu+3HzUvxPwJtOvuq4nj9yWXnmc/sxjnN19/ntudprdxt6df/vyvVBaQu7kEWMz+3w35fnGP/iZb7at/H6Duq5Pyv/PjtlNXdeXM3/fn/ld7h0HABBMWadQepLk4IFveVe+7+N9NweVy+bHaW5ieuh5fp6Grnv0qqoaJTlMcyPSXUdVVQ3uhLKLO9+zW0L0fS6fMS6b5fc6eOB7rpIc3xN6+3e277eqqiZJRkl2knxOclL+7bj8XZJcVVV1VL7vvlKE46qqjqahFgAEU9bNY2fg3lZVldlwWmYt/3jMDz8QSvODYJwS0o5LcH2OyTNC6TiPu6P/Q1VV/bquH9q20Z3AvfPA4/35wONsJPmjqqrJ92ZrAUAwpW39qqqe+7NPCW1vq6o6nrn0/diguIg73gcvOJ7Hedod/QdVVZ08EBa3F7x9R/n+7DAAvBqWi+qmD2kuHX/v6yFnSX5N8nNd19XsV5Lf7/n+3nf+nCSf7nmM3SeEytskn5J8fIFw95C9O///Jcmv5ff5vyS/3RO2nxLS3//gez6XffJ/5eu8xZAOAJ1lxnTNlNnPyXf+7bjUPG7fCUXj7zzc5J7HGD9iM76kqdU8mf5Fqcn88NLjUW46ulsvezgtRSh1rifl+94+ENLv8778ng+VT3xTy1tV1XGS4cxfbThyAUAwfY0mefxs5VEpKTj7QU3pXWf33NDT1rqim/eE6/u2ZXwnmP7IT49cmcBd9wAgmK60T3m4VvTdjx7gO8s9JQ/PBF7m3zfybJTneldV1W2aMoGzuq7P1nDMnxQgH7tcFgAgmK66h268SVVV7x74t34JkM+p4RylubR/341CG2nutj+oquq8rus9uwkAWCQ3P62f54bS1HV9U9d1P83NQOcPfOuwqirBFABYKDOma6TMlt4NpZ/z75ubDn8UXEt96MnMYx7l27VJpzOzbRgs4TG1MAUAwZQlhquruq4Hd8LrIE+YUS03Ch2W1ps7Hfk9+1VVbT63nWdVVb17akT7Dh8AEEx5ISVc9h749/5MGP1R6H1J43x7U9a4LLt0X8DcTLJZ1/VRXdfje5oVHFdVdTjT736QZlZ41qLupu/dE6IPHY0AIJiuu7shbbuqqssSsjbz4+5HhymtStOsRXozE0rf/OC5lukk365E8CYPt0/9MvPn8/x73dBhkv9WVfWlBPX71hFdVJnC9Iax6Tbd93znDl0AEEzXSl3Xk6qqrvLvS/VPacXZf+TP3eYF60vL7/U+j1gm6zvbf5SmLnXjge+Z9fmedVgX4c0DwRsAXj135a+fvXy/l/1tHp6de0yd5W2So+fWd84RTkdp2npePfZnSunCdM3RQZobwX7kY75tYbpMv6/purAA8GRVXddGoc0dUFWb9wTCy4eCX6mJ/O73l0C2V8LYZpoazUm+znLOPt9k9kagUmfaT3PJefqV2ce4u23lZza/95jf+z1n12r90e90z+8//d2mj3mTr92lxvdtw8y27t352envNv7Ozzy47Xe+d5x/18PONkuYjtN0W08s1A8Agiks64PG3WD6vsz2AgA/4FI+AACCKQAACKYAAAimAABwl3VMYfFu09x1P0lzxz8A8AjuygcAoBNcygcAQDAFAADBFAAAwRQAAO5yVz7ACqmqapCkV76SZHDPt92kWRli9s83dV1fGkGg069x7soH6HQQ7SU5TLKX5M0CHvJLCarjJOO6ridGGRBMAXgokA6SjJLsLPmp3td1PTLiQBe4lA/QrUC6meQkyfCFntLlfUAwBeCbUNpPc4l94wWf9sbIA515HXQpv/U3ol6a+rFXzaVEvBa0EkqT5P/quhZOAcGU/9WRXQimdeVo4BW/DmwmmbQQSp17QKdYxxSgfWdthNIknw09IJgCkOR/V012Wnp6l/ABwRSA/xm1+NzuyAcEUwD+d8PTToubMLEXAMEUgKT9FTkEU0AwBSBJ02ZUMAUoLLAP0IKyRNT2Ah/yNk3N6E35b698Jclmkjd3f6Cua8EUEEwBSH9Bj/MlyVFd1+NHhuF++dq0CwDBFIBFBdMvSQaP7dxUvm9cvgA6R40pQDsWMWO5p50oIJgCMK/enD//RY0oIJgC0IVganF8QDAFoBMmhgBYN25+at9lkt0lP8fFnD//JcmRXQUACKZrbOYu2aWpqmreh7h5zFI0AADzcCkfAADBFAAABFMAAARTAAAQTAEA6CR35dN5VVX18u/FyAd3vmU88+fL19KisaqqzTR90s86um17dV2fLOnx+/l3S8+7x0jSrPM5eY3HRseOhdnzdTNJ/4Hzd/Kaull1+Rx+xHk3++fLJDdtnGNlDPv3HF830+2q61ozCsEU5nrhG5QXl36SN4/4sXd3HiNJPpcXpcskZ+sUSMob/WGSvSQbVVXtdmU5r6qq9sq2Dcv/P2vsZz6MDGbebDYfeTw89LhJclUC67gcH2OBdXEh6875u/HM8/dL2UfT/TNes7HaK+fvQfn/n7oUyMv5N5g5Bx+7L1NV1VWSsyTHi/6dymvf9NjqJdl5wnl/Xt4LTpytHVfXta81/0pSz/k1XvL29ZIclzeieklf4xKYNpew/aNnbtPRE5/n8DtjNFjCtg2esF2baRowTJ7zOGX/H5ZjYLzEY+BFjo+Wtr+V87rsu6MSIJe5rTdJTtLMwqdD5/DeE8+TlzqHN5+xHw/LGC/ydfh4nnOqBNDRgl8XJss6jnwt5suMKW3P/I0e+6l3Tjvl67iqquPyab7tWbLNR85CHZWv781Y9JawbYP8oPHDI7ftoZ8/LrNG2x04HLt4fCzbeM5z93A64z2lHDwAAA2gSURBVPcCNspzHZQZuZOO7KN+mR1c2nkyx/n7o+3qlfPvcN4rEQ94m2RQVdXhYy+nz8wm7y1pvLaT/FlV1ae6rg+9E3ePm59o5TJRVVVnaVql7rzw02+kuXR4eaf2rQ2DH4zTdBby3Q9eoJcRTHsPvdFWVTV65Lb1f/Cmtd2xw3N6fEzK+PPtuXtSzt2DljZje2YftR0sFnWeLPq1aO+BbTqqquoyyT9JPiwxlE69STIuQfh7Y9WvquqkqqqbJH+WY2vZIf6gHMsIprzyN7a9NJf9hi1vynaSi/LG0ZbN74zRYVVVk/KmsfHcx1nGG24JApePeKN9zLZ97vChupHkQ3mz3HTm/mvfH3RoH/1RVdW4xX20qPNk0fbubM+gTAb894XC6H376uyekHxYQvLfLxRG7wunI2e3YMrrfWMblU/DGx3arHctfmp+c8+swTjJH3naTGJ/CdvWv+eN7fIZ29Z74N9W4VL5QZrZnnUMp5MnnLsnZd9vdPD32Ekze9pv6bnvniddOIc3yuvJ9EPuRQcmA95UVTW6M5P8Rwsh+b73gJ53aMGU1xdKT3Ln7tsuhY+2wmm5NLpZ6hr/zsuXNjw0wzGd1Tgpb2zPeQN56AV/VZZweZPmJo5XGUzL/j/o+O+yUT5A9Fs4hzfvnCfPOYeX8cHn72cE5GV7bHnSS1vH81swhQdeuA9X4I3toKWawukL9ds5HmNnSfttulLCPPtucw2CaZvHRxc+UB6syOa2FU5HCzhPeq/kkNpIN2fdh2ZNBVNezxtbv3xqXwUfWnhTe9vRF+pFbdtDs6yTFTucR2t2Sf/mB+fu0QqF0tngc/bC+2kR58l2aJubHQVTXomzFdvelbyks4qf9lewG8vGOr15PTT+5QPahxX91bbTLCcFTzEwBIIpa64UuK/aTMBOB5aReo5eh4+Dh2ahv6zYOB+9krv0V73mbrhq5/GKvu6skzdW4BBMWe9QOl1UehWNVnCbN1d02yYrNs4b+c4akWt07g7SnZvw5nHilZgn6hsCwZT1tayuHS9hZwUvjXf5BfWhsbxc0WN71X1Zsw9m99ku6yY7h3msgSFon5akLMsiZ0tv08x+jNP09/7XTRtldrafr+31FhGI92IJkZcIppMH/u2q/Pv06+ZOkL28ryVl+VDRSzNT2y9fi1zD8UdvXo9tHNCf81i9yvNnnO/9QFDKLpYxW3pVnvO+553dT4v+MHuY1alzdxnZPkAwZRlKMFjUosnv84Oe2OXfxmmWihmlmfF5O+fzHq5QML1Ndxerv83Ds6KTme8Zl/9O5rkxqq7ryUxgO5v58HKUxaylu1FVVf9721jX9eCR58l4zhB4Utf1aAlBbpH7/rhs5+SRY7JX9tOiwvGwqqreY5+/w+cJL8OstWDKmlrU5bPf6ro+eWIouUlzg8q0S9FzvamqavOhQNwBV2lmko87uJ1XSUY/2n91XY9fYpaijM+ohMGLBTxkb02DxKLO3U9Jjp56XNZ1fZZmuadB+VCxiBnUQbpbb3pVPkifdegcnv2gOPshr1fG8qDFsZpu0/hOmDxM+x2kEEzpsMECHuP3p4bSO29wJ2Vh/3lmXvp3XgBXKvTZtvuDcFVV7zP/zGk/q7cU2oPKlY5FrKLxqa7rwwXsp0E5/+YNp3sdDKZdO0+uyvF8Vj4sfs9JabyxiP3ymIA8Lts1fmDWe5zkeMWaQfAANz+xDPNeDvlS1/UiLqPPW+c66Ni43iZ5X9d1r4PB7yrNDHevq6F0xiKOrXWsRVvE8f553lA6E04vs5gZ3H7HzuGunCe3ST4m+blsz9EPQunsfllmmdN5GaPNuq736rp+VClIOe6unNeCKfxLqeWbd9ZlIS965QV0nheqXpcCaZLeEmoKF7Vt/RUIpNPj4qa8+a1L2FmURRzvowXvq3EefzPZ92x3YH3K2XO47fPk80zwO3pmPffJksbnp2kYfebjzLtdygEEU9bQIt6wF3mJdDzHz3YhmH4qoW/UwTrST9Ow3PFa3Pu40eRbgzl//stjZtxa+qDad57kU5Lduq4H84bjBd5MdpXkt5nxmTivUWNK11wt+MV7nhe6NoPplzQ3j4w7uI8+l23zJsCiPgQ+FILOqqqa92F6LZ0now6cw1dJBh1cmeBjXdeLbsJy4zRcfWZMWbRBi0Fy0Y/XRjvV2zQ3fvU7GEqn9XGDNQilQvW35l2iaZnH67yta3stnSddOIcnHV0u68wpx33MmLLuJiu0redJDjt6WfxZy/90mJmV1RrTVdlf63aegGAKr9Btkr2OXrbv8rbxuj5g7jiHYf25lA/tu+zwG9qlN1s6EkydwyCYAgDAy3Apn67ZqaqqNgwA8PqYMQUAQDAFAIApl/KBTqqqqp9mXdxems49m9EyEEAwBXihMNpLcpRkL+00OABAMAVeeSDdTDJK8tZoAAimAG2F0n6a9oRmSAEEU4BWQ+k4yYbRAMBd+UBboXRTKAVAMAW64EQoBUAwBVpVVdUgydBIACCYAm07MgQACKZAq0ptqdlSAL7hrny65nNd1wPDsNb2DAEAginQBf0FPtZtkstn/Jz2pgCCKcBCgunHJMd1XU+e88Pl5qsLuwJAMAUE03m8r+t6ZBgdM8D6cfMT8NLmWbv0Vih9lTYNAQimAF0zNgRLczvnzy9zVrNn94BgCm0EB5fs1lip7ZzHpVFcmssunrtVVfWSbPtAA4IptGGjvBEBL+tmzp9f1jJglhcDwRSebREzWt6IYPXO3Y2qqg6XsF1zdwmr63ps94JgyitU1/VN5q9V065yfc07K+cmmOVZRHg7Lp29FqKqqlHmv4z/xa4FwZTXbd6Zl+2qqo5feqOrqtpURrD0Dy6drGNkIedt0qy4MF5EOC2zr+86ErgBwZQVtog3grdltmTZYXRQVdWoqqpxkv8mObb7Om1nng8P5cPHKMmZofzmQ8NNks8LeKg3SSZVVe3NsY9OkvzRodcjQDBlhS3qTf9dVVWTRdWtVVXVr6pqbxpEq6qq03T/eZdkp3zbwO5buqs5f/7kmR9ATsqHj3eZby1V5+6PbST5s5y/Rz9ajaGE0b2ZfXSwoO24revahxBYITo/sXB1XV9WVXWV+WvDUh7jj6qq/kgzmzMufz/+zvdv5uvl3t7M12O3ZaOqqt5zW13yKJM5j42dqqou08xun5WZvm+CaNnvgzQ30wmijw/9Hxb4eNvTx6uqKmnqzy/vnK9vViBoA4Ipa/AG927Bj7mTrzOb75a47f0SnliO8cx+fK43aS71/lECz5cSRAXQ+T5U3lRV9SmLm7H85oPfAvb9U4zsVVgtLuWzLMeZ/+78trjBZvnBdNHeCKXC3B2fXPkAwRSS/O9GilW9kWhgDy712Biv8IeW17B/Jkner/ivcRuzpSCYwh3Hmf9GlzaYMV0+tX/O3WUamS0FwRT+pcyaHq7gpmuL+jLBh26fu3tZzZnt87quHV8gmMK9b3DjJL+v4KabNV3ucXGZ5NxIdH4frVoXti8r+mEYEEx5wTe44ySfVmyzB/bc0h1FrWnXz92TJL+tUCgd3Ld8GCCYwt03uMOs1sypGdPlHxOTtD8jp4/648Lpzx3/EPFJKAXBFJ76BnecZDercVPFjj32YqGnjdn0z0l+ilrXx+6nyzTrxHat/OI2yW91XR8KpSCYwnPe4MZpZiO7uhzNVZKPaWaIeJlj4vAFj4fPSXbruh6UGVurAzx+P93Udb2X5NeOfLj8lKRXPtwAginM9QY3SjNj9T7tXyL8XLbj57que3VdH5UZIl7umBhlebPptyXE/FwC6Xj2WIzL+U/dV2d1XfdKQP38wk9/Wz44/mSWFNaTlqSvw7xvHksJaWXGapRkVFXVXprlaQaZr4/6j1yV3+cyyXg2pMxhMucYLzMEd3nb7h4P46qq+mnuqj6a8zi4TTMbelbX9Y9mRU/KsffS43K5gH3bakBNclaWVpuevztLOmfHj9yXzuGX27Z531eW8aHipoUPSyxYVde1UaBbB2XzRtcrIXX65800bScf8yY2mXlB/9/XgkIoL3cc9Gc+rPQeCKpfyhvSuOzrSzPere63QZpync18Xd2inx+3jJ3ux+k5e1n25cSogmAKAAAvSo0pAACCKQAACKYAAAimAAAgmAIAIJgCAIBgCgCAYAoAAIIpAACCKQAACKYAAAimAAAgmAIAIJgCAIBgCgCAYAoAAIIpAACCKQAACKYAAAimAAAgmAIAIJgCAIBgCgCAYAoAAIIpAACCKQAACKYAAAimAAAgmAIAIJgCAIBgCgCAYAoAAIIpAAAIpgAACKYAACCYAgAgmAIAgGAKAIBgCgAAgikAAIIpAAAIpgAACKYAACCYAgAgmAIAgGAKAIBgCgAAgikAAIIpAAAIpgAACKYAACCYAgAgmAIAgGAKAIBgCgAAgikAAIIpAAAIpgAACKYAACCYAgAgmAIAgGAKAIBgCgAAgikAAIIpAAAIpgAAIJgCACCYAgCAYAoAgGAKAACCKQAAgikAAAimAAAIpgAAIJgCACCYAgCAYAoAgGAKAACCKQAAgikAAAimAAAIpgAAIJgCACCYAgCAYAoAgGAKAACCKQAAgikAAAimAAAIpgAAIJgCACCYAgCAYAoAgGAKAACCKQAAgikAALTr/wNsePJ3vuawYgAAAABJRU5ErkJggg==;" vertex="1" parent="1">
          <mxGeometry x="140" y="655.5" width="80.11" height="80" as="geometry" />
        </mxCell>
        <mxCell id="U4Y1twGSvuks3hTIH1sI-25" value="" style="endArrow=classic;startArrow=classic;html=1;rounded=0;strokeColor=#080808;" edge="1" parent="1" target="U4Y1twGSvuks3hTIH1sI-17">
          <mxGeometry width="50" height="50" relative="1" as="geometry">
            <mxPoint x="260" y="696" as="sourcePoint" />
            <mxPoint x="420" y="669.5" as="targetPoint" />
          </mxGeometry>
        </mxCell>
      </root>
    </mxGraphModel>
  </diagram>
</mxfile>
